<svg version="1.1" id="Layer_1" xmlns="http://www.w3.org/2000/svg" xmlns:xlink="http://www.w3.org/1999/xlink" x="0px" y="0px"
	 width="100%" viewBox="0 0 517 483" enable-background="new 0 0 517 483" xml:space="preserve">
<path fill="#000000" opacity="1.000000" stroke="none" 
	d="
M1.000000,164.000000 
	C1.000000,109.346863 1.000000,55.193729 1.000000,1.020297 
	C173.276749,1.020297 345.553497,1.020297 517.915161,1.020297 
	C517.915161,161.903152 517.915161,322.806366 517.915161,483.854797 
	C345.666748,483.854797 173.333389,483.854797 1.000000,483.854797 
	C1.000000,377.446442 1.000000,270.973236 1.000000,164.000000 
M512.989685,179.159927 
	C512.979126,177.776398 512.968628,176.392853 512.968811,174.079742 
	C512.969727,150.754288 508.982239,128.076553 500.741791,106.311241 
	C497.788422,98.510567 492.959412,91.420036 488.937622,83.285561 
	C488.591431,82.362206 488.432007,81.302170 487.871246,80.535820 
	C477.845154,66.833755 466.167053,54.843754 450.984039,46.875992 
	C439.768585,40.990314 427.544098,37.674683 415.083496,36.146206 
	C401.074280,34.427765 386.912079,33.956608 372.595551,32.282322 
	C359.436218,27.041109 346.468811,21.233150 333.070831,16.696781 
	C314.786987,10.506131 295.747803,7.771739 276.462128,7.030483 
	C270.612610,6.805654 264.735657,6.754173 258.891815,7.041643 
	C248.148773,7.570117 237.326370,7.761992 226.715485,9.314100 
	C217.494629,10.662880 208.539627,13.777000 199.432953,15.968965 
	C178.581009,20.988001 159.380203,29.966871 141.404297,41.337582 
	C130.422119,48.284393 119.921982,56.190338 110.072495,64.672447 
	C101.138077,72.366531 93.377945,81.424194 84.724007,90.463615 
	C78.956795,94.561012 72.895889,98.308418 67.494080,102.841270 
	C60.155491,108.999298 52.480942,115.065376 46.436394,122.396103 
	C31.553644,140.445679 23.099064,161.910294 17.210070,184.260712 
	C9.795222,212.402206 5.331205,240.927139 7.929679,270.269257 
	C9.174144,284.321838 11.568388,297.962952 15.504887,311.547974 
	C22.827375,336.818207 36.774609,357.908844 55.566326,375.597565 
	C67.092888,386.447510 80.486374,395.314148 93.001396,405.764221 
	C93.412178,406.208069 93.822960,406.651917 94.260254,407.138947 
	C94.260254,407.138947 94.287781,407.097015 94.890060,407.526031 
	C97.772667,410.381714 100.457031,413.477783 103.574570,416.048584 
	C113.418777,424.166382 123.070602,432.584930 133.443802,439.979584 
	C154.151688,454.741333 177.253799,464.783844 201.609650,471.765259 
	C218.096695,476.491119 235.015121,479.477234 252.198349,479.917664 
	C271.484009,480.411957 290.694000,480.086182 309.813385,476.193329 
	C328.820709,472.323334 347.204254,466.834259 364.729309,458.667908 
	C389.708069,447.028137 412.585510,432.154419 431.612518,412.020020 
	C440.916199,402.174805 449.920929,391.957306 458.134644,381.200928 
	C464.421844,372.967377 469.943237,363.966492 474.565735,354.689301 
	C480.686493,342.405212 486.467804,329.807678 490.785950,316.810242 
	C495.111420,303.790710 497.684082,290.161591 500.541595,276.697083 
	C501.480103,272.274841 500.907990,267.532043 501.348297,262.273956 
	C509.951630,235.513168 512.906189,207.956192 512.989685,179.159927 
z"/>
<path fill="#8576F6" opacity="1.000000" stroke="none" 
	d="
M501.026672,262.935822 
	C500.907990,267.532043 501.480103,272.274841 500.541595,276.697083 
	C497.684082,290.161591 495.111420,303.790710 490.785950,316.810242 
	C486.467804,329.807678 480.686493,342.405212 474.565735,354.689301 
	C469.943237,363.966492 464.421844,372.967377 458.134644,381.200928 
	C449.920929,391.957306 440.916199,402.174805 431.612518,412.020020 
	C412.585510,432.154419 389.708069,447.028137 364.729309,458.667908 
	C347.204254,466.834259 328.820709,472.323334 309.813385,476.193329 
	C290.694000,480.086182 271.484009,480.411957 252.198349,479.917664 
	C235.015121,479.477234 218.096695,476.491119 201.609650,471.765259 
	C177.253799,464.783844 154.151688,454.741333 133.443802,439.979584 
	C123.070602,432.584930 113.418777,424.166382 103.574570,416.048584 
	C100.457031,413.477783 97.772667,410.381714 94.825806,406.890839 
	C95.687241,406.581360 96.642403,406.841492 97.534210,407.242554 
	C112.523148,413.982849 127.243599,421.414062 142.547897,427.337372 
	C165.616837,436.265900 189.756577,441.199768 214.423645,443.137543 
	C227.363022,444.154022 240.382370,444.176971 253.313736,445.265045 
	C275.604065,447.140564 297.639557,445.527283 319.268066,440.252319 
	C362.643829,429.673401 399.096741,406.932709 430.112335,375.203491 
	C444.637451,360.344147 457.448486,344.019348 468.317352,326.325531 
	C475.349762,314.877167 481.386841,302.813477 487.718933,290.944916 
	C488.342834,289.775482 487.908478,288.041412 487.965027,286.565613 
	C487.964722,286.561829 487.969666,286.506989 488.257446,286.903687 
	C489.882904,284.865967 491.220612,282.431549 492.634216,279.818848 
	C492.804657,279.265747 492.899170,278.890900 493.374573,278.405945 
	C494.520660,275.858093 495.285828,273.420380 496.033722,271.007111 
	C496.016418,271.031525 495.975677,271.075409 496.314728,270.939148 
	C496.790314,270.352051 496.926849,269.901184 497.046600,269.485535 
	C497.029816,269.520721 496.990967,269.588379 497.294312,269.300171 
	C497.752502,268.489838 497.907349,267.967712 498.045227,267.291656 
	C498.009064,266.932007 497.998230,266.725861 498.430267,266.319031 
	C498.906738,265.074982 498.948700,264.031128 498.996460,262.993469 
	C499.002228,262.999603 498.986359,263.005157 499.215027,263.393341 
	C499.971375,263.499634 500.499023,263.217743 501.026672,262.935822 
z"/>
<path fill="#8576F6" opacity="1.000000" stroke="none" 
	d="
M85.100090,89.880676 
	C93.377945,81.424194 101.138077,72.366531 110.072495,64.672447 
	C119.921982,56.190338 130.422119,48.284393 141.404297,41.337582 
	C159.380203,29.966871 178.581009,20.988001 199.432953,15.968965 
	C208.539627,13.777000 217.494629,10.662880 226.715485,9.314100 
	C237.326370,7.761992 248.148773,7.570117 258.891815,7.041643 
	C264.735657,6.754173 270.612610,6.805654 276.462128,7.030483 
	C295.747803,7.771739 314.786987,10.506131 333.070831,16.696781 
	C346.468811,21.233150 359.436218,27.041109 372.249878,32.580551 
	C354.430054,32.902355 336.955414,32.871914 319.482666,33.038288 
	C317.847443,33.053860 316.224030,34.312714 314.627930,34.994808 
	C314.660706,34.995304 314.552795,35.008652 314.290192,34.591953 
	C312.981812,34.317299 311.936066,34.459343 310.890289,34.601387 
	C311.089478,35.081482 311.288696,35.561577 311.327209,36.042824 
	C310.952209,36.045284 310.737915,36.046013 310.830353,35.608749 
	C309.346527,34.724392 307.476685,33.691429 305.777740,33.921413 
	C289.330444,36.147877 272.911896,38.586330 256.499207,40.965691 
	C256.513275,40.967129 256.537872,40.953072 256.126709,41.001648 
	C255.283951,41.369053 254.852356,41.687881 254.445190,41.992935 
	C254.469620,41.979164 254.523026,41.962044 254.084671,41.857246 
	C249.592606,42.489613 245.538895,43.226772 241.499207,43.965618 
	C241.513245,43.967300 241.537781,43.953232 241.128662,44.003502 
	C240.286026,44.370712 239.852493,44.687653 239.443420,44.990974 
	C239.467896,44.977352 239.521118,44.959850 239.084137,44.880360 
	C233.926819,45.856255 229.206512,46.911640 224.498779,47.970078 
	C224.511353,47.973129 224.529388,47.954556 224.177307,48.004227 
	C223.529785,48.375473 223.234360,48.697052 222.955872,49.004932 
	C222.972809,48.991234 223.013718,48.976234 222.621796,48.927410 
	C217.982010,49.909431 213.734177,50.940277 209.499115,51.971046 
	C209.511902,51.970974 209.529846,51.952774 209.177521,52.002296 
	C208.529282,52.374683 208.233337,52.697544 207.954895,53.006069 
	C207.972382,52.991730 208.014496,52.975235 207.700714,52.929455 
	C205.753021,53.245968 204.119095,53.608261 202.498352,53.969536 
	C202.511520,53.968517 202.530869,53.950531 202.176834,53.998787 
	C201.528351,54.371655 201.233902,54.696259 200.956329,55.006958 
	C200.973190,54.993050 201.014191,54.977951 200.619171,54.918961 
	C196.311508,55.897339 192.398865,56.934704 188.498962,57.971436 
	C188.511703,57.970798 188.529724,57.952702 188.170776,57.999146 
	C187.524979,58.370903 187.238144,58.696217 186.966217,59.008286 
	C186.981155,58.995037 187.019394,58.983616 186.706116,58.873032 
	C177.084915,61.495968 167.777008,64.229492 158.478867,66.971550 
	C158.488632,66.980087 158.507935,66.962852 158.176102,66.992142 
	C153.489365,68.355194 149.143570,69.719757 144.777069,71.014397 
	C140.049042,72.416214 135.258881,73.630829 130.612503,75.259850 
	C129.974289,75.483612 125.498970,75.573547 128.734039,78.649864 
	C127.411926,79.190956 126.358025,79.629585 125.622910,79.558273 
	C125.267601,78.608688 124.593498,78.169060 123.919395,77.729431 
	C123.437370,78.503105 122.955353,79.276779 122.312653,80.048981 
	C121.937714,80.043259 121.723747,80.032860 121.614273,79.559647 
	C117.695625,80.127388 113.665359,81.125374 109.670341,82.248726 
	C109.454735,82.309349 109.534721,83.421234 109.317368,84.043335 
	C108.944557,84.039680 108.731827,84.029587 108.290123,83.511688 
	C107.011803,83.488152 105.962761,83.965569 104.913719,84.442978 
	C105.275612,84.812492 105.637505,85.181999 105.704918,85.661415 
	C103.779594,86.188080 102.148750,86.604843 100.892693,86.610809 
	C99.516548,86.246574 97.765625,86.293129 95.617584,86.386810 
	C91.847015,87.582840 88.473557,88.731758 85.100090,89.880676 
z"/>
<path fill="#2E2731" opacity="1.000000" stroke="none" 
	d="
M84.912048,90.172150 
	C88.473557,88.731758 91.847015,87.582840 95.653137,86.939430 
	C96.113739,87.812981 96.141693,88.181038 95.866547,88.710617 
	C88.976616,92.624062 82.389793,96.375977 75.505402,100.191429 
	C74.840393,100.875648 74.472961,101.496330 74.062210,102.060104 
	C74.018883,102.003181 74.111992,102.117836 73.752342,102.094421 
	C72.068718,102.744308 70.615761,103.244110 69.440674,104.117691 
	C57.480110,113.009377 47.611950,123.867966 39.784069,136.516068 
	C27.956436,155.626877 21.427006,176.800034 16.362080,198.468887 
	C10.308658,224.366745 8.099123,250.569412 11.000814,277.092377 
	C12.917526,294.612061 17.427464,311.278809 24.674269,327.520020 
	C35.151997,351.002228 51.263054,369.636780 70.558548,385.942871 
	C72.980217,387.989349 76.061066,389.255737 78.977272,391.218750 
	C80.690231,392.910187 82.143883,394.442047 83.852951,395.595459 
	C100.890297,407.093567 119.182816,416.151215 138.412231,423.336456 
	C188.205429,441.942169 239.974808,445.206024 292.312134,441.929199 
	C326.782532,439.771027 357.841156,426.604889 386.558289,407.923492 
	C406.753937,394.785583 424.505310,378.803772 440.128296,360.401581 
	C452.473877,345.859833 463.666412,330.555450 472.956696,313.889069 
	C478.015533,304.813690 482.965973,295.677948 487.965332,286.569427 
	C487.908478,288.041412 488.342834,289.775482 487.718933,290.944916 
	C481.386841,302.813477 475.349762,314.877167 468.317352,326.325531 
	C457.448486,344.019348 444.637451,360.344147 430.112335,375.203491 
	C399.096741,406.932709 362.643829,429.673401 319.268066,440.252319 
	C297.639557,445.527283 275.604065,447.140564 253.313736,445.265045 
	C240.382370,444.176971 227.363022,444.154022 214.423645,443.137543 
	C189.756577,441.199768 165.616837,436.265900 142.547897,427.337372 
	C127.243599,421.414062 112.523148,413.982849 97.534210,407.242554 
	C96.642403,406.841492 95.687241,406.581360 94.524673,406.676331 
	C94.287781,407.097015 94.260254,407.138947 94.641830,406.878143 
	C94.362778,406.102020 93.702148,405.586700 93.041519,405.071381 
	C80.486374,395.314148 67.092888,386.447510 55.566326,375.597565 
	C36.774609,357.908844 22.827375,336.818207 15.504887,311.547974 
	C11.568388,297.962952 9.174144,284.321838 7.929679,270.269257 
	C5.331205,240.927139 9.795222,212.402206 17.210070,184.260712 
	C23.099064,161.910294 31.553644,140.445679 46.436394,122.396103 
	C52.480942,115.065376 60.155491,108.999298 67.494080,102.841270 
	C72.895889,98.308418 78.956795,94.561012 84.912048,90.172150 
z"/>
<path fill="#2E282D" opacity="1.000000" stroke="none" 
	d="
M314.595154,34.994312 
	C316.224030,34.312714 317.847443,33.053860 319.482666,33.038288 
	C336.955414,32.871914 354.430054,32.902355 372.360291,32.910812 
	C386.912079,33.956608 401.074280,34.427765 415.083496,36.146206 
	C427.544098,37.674683 439.768585,40.990314 450.984039,46.875992 
	C466.167053,54.843754 477.845154,66.833755 487.871246,80.535820 
	C488.432007,81.302170 488.591431,82.362206 488.768799,83.812378 
	C488.392242,84.608360 488.184570,84.877510 487.701355,84.934883 
	C484.620636,80.847397 481.914856,76.895012 478.992645,73.109688 
	C468.268921,59.218594 454.185059,49.791893 437.691620,44.588573 
	C426.316956,41.000122 414.419128,38.872410 402.619629,36.904308 
	C395.849548,35.775101 388.808868,36.268158 381.471954,36.022038 
	C379.273224,35.743652 377.492981,35.243690 375.711792,35.240211 
	C357.780640,35.205170 339.849396,35.262505 321.918152,35.262119 
	C319.477142,35.262066 317.036163,35.087875 314.595154,34.994312 
z"/>
<path fill="#292326" opacity="1.000000" stroke="none" 
	d="
M487.976898,85.146667 
	C488.184570,84.877510 488.392242,84.608360 488.793182,84.172302 
	C492.959412,91.420036 497.788422,98.510567 500.741791,106.311241 
	C508.982239,128.076553 512.969727,150.754288 512.634094,174.544037 
	C512.078857,175.011383 511.858368,175.014435 511.494934,174.655106 
	C510.256378,164.002808 509.482635,153.666138 507.997437,143.432755 
	C504.999634,122.777847 498.999451,103.080719 487.976898,85.146667 
z"/>
<path fill="#292326" opacity="1.000000" stroke="none" 
	d="
M501.187500,262.604889 
	C500.499023,263.217743 499.971375,263.499634 498.861694,263.110565 
	C499.904419,256.277313 501.529083,250.115036 503.402283,243.688965 
	C505.105347,235.630173 506.994629,227.886230 507.917297,220.028793 
	C509.480652,206.714844 510.433746,193.329254 511.969086,179.980255 
	C512.511963,179.987274 512.729126,179.987839 512.946289,179.988419 
	C512.906189,207.956192 509.951630,235.513168 501.187500,262.604889 
z"/>
<path fill="#2E2731" opacity="1.000000" stroke="none" 
	d="
M512.968018,179.574173 
	C512.729126,179.987839 512.511963,179.987274 511.998901,179.567444 
	C511.681305,177.771271 511.659607,176.394379 511.637878,175.017471 
	C511.858368,175.014435 512.078857,175.011383 512.628784,175.008835 
	C512.968628,176.392853 512.979126,177.776398 512.968018,179.574173 
z"/>
<path fill="#8576F6" opacity="1.000000" stroke="none" 
	d="
M93.021454,405.417786 
	C93.702148,405.586700 94.362778,406.102020 94.628571,406.856567 
	C93.822960,406.651917 93.412178,406.208069 93.021454,405.417786 
z"/>
<path fill="#8576F7" opacity="1.000000" stroke="none" 
	d="
M503.153778,243.952759 
	C501.529083,250.115036 499.904419,256.277313 498.633057,262.722382 
	C498.986359,263.005157 499.002228,262.999603 498.592163,262.965118 
	C498.119995,264.126831 498.057861,265.323059 497.995728,266.519257 
	C497.998230,266.725861 498.009064,266.932007 497.393433,267.236389 
	C496.836060,268.086151 496.913513,268.837280 496.990967,269.588379 
	C496.990967,269.588379 497.029816,269.520721 496.494476,269.356750 
	C495.964661,269.820312 495.970154,270.447876 495.975677,271.075409 
	C495.975677,271.075409 496.016418,271.031525 495.792114,270.626099 
	C494.709778,272.985840 493.851715,275.750946 492.993683,278.516083 
	C492.899170,278.890900 492.804657,279.265747 492.464600,279.321350 
	C490.802612,281.503754 489.386139,284.005371 487.969666,286.507019 
	C487.969666,286.506989 487.964722,286.561829 487.965027,286.565613 
	C482.965973,295.677948 478.015533,304.813690 472.956696,313.889069 
	C463.666412,330.555450 452.473877,345.859833 440.128296,360.401581 
	C424.505310,378.803772 406.753937,394.785583 386.558289,407.923492 
	C357.841156,426.604889 326.782532,439.771027 292.312134,441.929199 
	C239.974808,445.206024 188.205429,441.942169 138.412231,423.336456 
	C119.182816,416.151215 100.890297,407.093567 83.852951,395.595459 
	C82.143883,394.442047 80.690231,392.910187 78.896500,390.889832 
	C78.078323,389.273071 77.544098,388.274078 76.876022,387.374542 
	C58.336613,362.412262 44.789921,335.054504 36.419109,305.041443 
	C30.792547,284.867767 28.517366,264.245239 28.435358,243.524704 
	C28.348782,221.650116 30.729580,199.829239 37.127254,178.737015 
	C42.730206,160.264862 49.502617,142.236542 59.688274,125.685150 
	C64.515396,117.841202 69.305252,109.974327 74.111992,102.117836 
	C74.111992,102.117836 74.018883,102.003181 74.309395,101.934227 
	C75.000923,101.286140 75.401947,100.707016 75.802971,100.127892 
	C82.389793,96.375977 88.976616,92.624062 96.254776,88.654816 
	C98.136711,87.965523 99.327309,87.493561 100.517906,87.021606 
	C102.148750,86.604843 103.779594,86.188080 106.095001,85.574371 
	C107.359512,84.922501 107.939461,84.467575 108.519409,84.012650 
	C108.731827,84.029587 108.944557,84.039680 109.727394,84.140045 
	C114.034805,82.830208 117.772438,81.423256 121.510071,80.016304 
	C121.723747,80.032860 121.937714,80.043259 122.782089,80.113098 
	C124.042839,80.141869 124.673477,80.105042 125.304115,80.068222 
	C126.358025,79.629585 127.411926,79.190956 129.108490,78.529144 
	C133.954529,76.959412 138.143143,75.564240 142.365234,74.279068 
	C147.226028,72.799500 152.131119,71.464958 156.987503,69.971603 
	C159.271591,69.269249 159.362869,68.922417 158.507935,66.962852 
	C158.507935,66.962852 158.488632,66.980087 158.164185,67.478943 
	C158.374420,68.292793 159.016968,68.984909 159.427917,68.867363 
	C168.467926,66.281563 177.487854,63.624245 186.480133,60.877533 
	C186.820923,60.773438 186.846771,59.638298 187.019394,58.983616 
	C187.019394,58.983616 186.981155,58.995037 187.459335,59.363213 
	C188.134918,59.138493 188.332321,58.545597 188.529724,57.952705 
	C188.529724,57.952702 188.511703,57.970798 187.992828,58.253220 
	C187.655960,58.948231 187.930328,59.738186 188.006790,59.719471 
	C192.651688,58.582691 197.280319,57.379547 201.910492,56.182617 
	C201.611725,55.781059 201.312958,55.379501 201.014191,54.977951 
	C201.014191,54.977951 200.973190,54.993050 201.447952,55.396206 
	C202.125427,55.183083 202.328140,54.566807 202.530869,53.950531 
	C202.530869,53.950531 202.511520,53.968517 201.979675,54.278534 
	C204.416458,58.243717 206.571701,54.885490 208.980667,53.714935 
	C208.658615,53.468365 208.336548,53.221798 208.014496,52.975235 
	C208.014496,52.975235 207.972382,52.991730 208.440430,53.400944 
	C209.115616,53.191029 209.322723,52.571899 209.529846,51.952774 
	C209.529846,51.952774 209.511902,51.970974 208.978912,52.263237 
	C208.744843,53.049011 209.147705,54.008259 209.327484,53.968124 
	C214.227966,52.874119 219.105682,51.678040 223.987198,50.499050 
	C223.662704,49.991447 223.338211,49.483845 223.013718,48.976234 
	C223.013718,48.976234 222.972809,48.991234 223.427246,49.436455 
	C224.097595,49.239300 224.313492,48.596928 224.529388,47.954556 
	C224.529388,47.954556 224.511353,47.973129 223.973785,48.302650 
	C223.705612,49.154434 224.083069,50.161434 224.228790,50.128952 
	C229.564255,48.939575 234.878204,47.653683 240.195099,46.381042 
	C239.970444,45.907314 239.745773,45.433582 239.521118,44.959854 
	C239.521118,44.959850 239.467896,44.977352 239.952393,45.489510 
	C240.803864,45.318859 241.170822,44.636044 241.537781,43.953232 
	C241.537781,43.953232 241.513245,43.967300 241.000549,44.298492 
	C240.675842,45.042511 240.925339,45.832901 241.042908,45.813740 
	C245.733093,45.049389 250.411346,44.211678 255.091125,43.383438 
	C254.901749,42.909641 254.712387,42.435844 254.523026,41.962044 
	C254.523026,41.962044 254.469620,41.979164 254.960419,42.475037 
	C255.813446,42.298298 256.175659,41.625687 256.537872,40.953072 
	C256.537872,40.953072 256.513275,40.967129 255.996719,41.299576 
	C257.305847,42.011909 259.197937,42.913261 260.946930,42.690601 
	C277.486389,40.584980 294.001495,38.287998 310.523621,36.046154 
	C310.737915,36.046013 310.952209,36.045284 311.748383,35.991245 
	C313.071136,35.628563 313.811951,35.318607 314.552795,35.008652 
	C314.552795,35.008652 314.660706,34.995304 314.627930,34.994808 
	C317.036163,35.087875 319.477142,35.262066 321.918152,35.262119 
	C339.849396,35.262505 357.780640,35.205170 375.711792,35.240211 
	C377.492981,35.243690 379.273224,35.743652 381.619751,36.341324 
	C400.192505,47.910862 417.774597,59.864685 432.483093,75.229080 
	C442.247070,85.428444 450.724426,96.889465 459.466827,108.029732 
	C472.173492,124.221649 480.770447,142.705215 487.976776,161.805969 
	C497.949615,188.239609 502.576660,215.742065 503.153778,243.952759 
M372.386597,330.896667 
	C371.636261,331.009125 370.249817,331.054260 370.229736,331.244019 
	C369.850433,334.827332 369.575928,338.426086 369.467102,342.027252 
	C369.455933,342.397217 370.846161,343.264191 371.220184,343.094421 
	C371.948059,342.763977 372.834656,341.908295 372.914764,341.187775 
	C373.169281,338.898560 373.083160,336.571411 373.956879,334.074982 
	C378.685577,333.716278 376.927856,337.084625 377.169922,339.451630 
	C377.286499,340.591705 378.063049,341.664337 378.540741,342.767487 
	C379.291443,342.336304 380.437378,342.085602 380.729736,341.445160 
	C382.905365,336.679565 380.391418,332.407440 375.288361,331.881226 
	C374.504272,331.800354 373.754242,331.389496 372.386597,330.896667 
M418.450531,332.759705 
	C418.436584,330.948792 418.555084,329.123322 418.358521,327.332428 
	C418.242340,326.273651 417.627838,325.269592 417.237396,324.240936 
	C416.343964,325.153717 414.729401,326.028046 414.678375,326.985718 
	C414.416595,331.898224 414.557129,336.832123 414.557129,341.832031 
	C415.743073,341.832031 416.889404,341.832031 418.520416,342.412537 
	C420.104797,342.386780 421.830597,342.756409 423.243439,342.251068 
	C425.992249,341.267853 427.428101,336.633759 425.609558,334.186188 
	C423.966492,331.974792 421.627258,330.553497 418.450531,332.759705 
M323.560394,337.814056 
	C326.407410,334.737885 327.256744,331.610321 324.008392,328.206207 
	C319.927338,323.929413 315.386322,323.951050 310.406067,328.369995 
	C307.276245,331.147064 307.018707,336.784119 309.869537,340.113312 
	C312.837982,343.579834 320.207123,344.253906 323.543091,341.200409 
	C323.898346,340.875244 323.262543,339.467377 323.140900,338.503632 
	C323.140900,338.503632 323.155823,338.425385 323.560394,337.814056 
M340.874237,186.211594 
	C340.378265,187.643997 339.882263,189.076416 338.943848,191.786499 
	C334.922119,180.294815 331.472321,170.242783 327.827759,160.261902 
	C327.355072,158.967316 325.970367,157.222107 324.847046,157.093597 
	C321.276276,156.685150 317.629364,156.942413 313.761810,156.942413 
	C313.761810,174.572220 313.761810,191.626160 313.761810,208.819962 
	C315.281342,208.957657 316.424377,209.127930 317.570679,209.154327 
	C325.253784,209.331390 325.257477,209.321442 325.267883,201.533691 
	C325.274567,196.546249 325.269165,191.558807 325.269165,186.571365 
	C328.626312,192.883789 331.022003,199.239777 333.081299,205.702927 
	C333.943573,208.409210 335.366486,209.077911 338.083038,209.282806 
	C342.310425,209.601654 344.298737,208.079269 345.441254,204.017242 
	C346.996765,198.486832 349.228027,193.146484 351.169525,187.724655 
	C351.677673,187.835266 352.185822,187.945892 352.693970,188.056519 
	C352.693970,194.957901 352.693970,201.859283 352.693970,208.860504 
	C354.475250,208.993881 355.620789,209.135712 356.768494,209.156509 
	C364.232574,209.291687 364.289429,209.240402 364.298187,201.790070 
	C364.310730,191.127380 364.301819,180.464645 364.302002,169.801941 
	C364.302063,165.694702 364.302002,161.587463 364.302002,156.908188 
	C361.129944,156.908188 358.645813,157.152893 356.229767,156.851669 
	C352.472076,156.383148 350.588226,157.706512 349.429810,161.437103 
	C346.915161,169.535309 343.891785,177.475540 340.874237,186.211594 
M326.997223,273.445923 
	C326.997223,276.830353 326.997223,280.214813 326.997223,283.599243 
	C322.552704,276.077576 318.304138,268.692535 315.482117,260.797607 
	C312.891907,253.551102 308.700470,251.287766 301.387787,252.100388 
	C297.733154,252.506516 296.538971,253.406052 296.587402,257.083954 
	C296.764923,270.574615 296.655121,284.069000 296.656677,297.561981 
	C296.657593,305.517029 296.657532,305.378387 304.568451,305.220093 
	C307.985016,305.151703 309.383026,303.907166 309.314575,300.489716 
	C309.191223,294.328827 309.287842,288.163574 309.291443,282.000122 
	C309.292999,279.384430 309.291718,276.768738 309.291718,274.153046 
	C314.157654,281.912537 318.450073,289.478180 321.400391,297.535278 
	C323.795959,304.077515 327.561462,305.757111 334.062836,305.351929 
	C338.780273,305.057892 340.015198,303.431458 339.958191,299.058075 
	C339.775818,285.067749 339.902008,271.073486 339.874695,257.080841 
	C339.871887,255.647461 339.637543,254.214539 339.499573,252.656555 
	C335.206665,252.656555 331.313049,252.656555 326.997253,252.656555 
	C326.997253,259.516754 326.997253,265.990295 326.997223,273.445923 
M254.890610,288.501526 
	C254.890610,283.695862 254.890610,278.890228 254.890610,274.084564 
	C259.826172,281.957306 263.915741,289.788208 267.169617,297.952240 
	C269.285065,303.259888 271.935394,306.447449 278.033661,305.181641 
	C278.672455,305.049042 279.369171,305.096832 280.026825,305.170197 
	C283.932343,305.605713 285.314606,303.852783 285.278961,299.986725 
	C285.143799,285.335724 285.236145,270.682709 285.201782,256.030579 
	C285.199219,254.934509 284.868439,253.839218 284.708466,252.855713 
	C272.760864,250.877121 272.760895,250.877121 272.760803,262.066040 
	C272.760773,264.397095 272.760803,266.728119 272.760803,269.059174 
	C272.760803,273.841431 272.760773,278.623688 272.760773,283.405975 
	C267.352234,274.353088 263.112366,265.158905 258.679535,256.058777 
	C257.968719,254.599548 256.494507,252.635834 255.202377,252.497131 
	C250.982208,252.044144 246.682999,252.327271 242.359131,252.327271 
	C242.359131,270.263519 242.359131,287.485535 242.359131,305.161560 
	C244.853668,305.161560 247.008575,304.990784 249.126709,305.197296 
	C253.456512,305.619507 255.251450,303.852539 254.935043,299.482178 
	C254.695221,296.169556 254.889450,292.825500 254.890610,288.501526 
M429.551270,305.162903 
	C431.626373,305.162903 433.701508,305.162903 436.806488,305.162903 
	C434.352295,299.808899 432.452454,295.437836 430.355591,291.163452 
	C428.758972,287.908722 428.791443,285.439087 431.323578,282.251617 
	C436.178589,276.140167 436.202881,268.933868 433.159027,261.946259 
	C430.290131,255.360229 424.411530,253.129883 417.727753,252.836960 
	C412.078094,252.589340 406.408112,252.826477 400.755005,252.626740 
	C397.643250,252.516785 396.756165,253.810974 396.788849,256.757172 
	C396.907104,267.409149 396.832367,278.063202 396.831024,288.716492 
	C396.830353,293.992462 396.830872,299.268463 396.830872,304.398438 
	C408.548279,306.731415 409.504333,306.005554 409.552887,295.367218 
	C409.554413,295.034302 409.444061,294.649963 409.572021,294.376862 
	C410.364929,292.685028 410.819122,290.101990 412.125244,289.543091 
	C414.486694,288.532623 416.885742,289.333221 417.963226,292.428314 
	C418.942017,295.239960 420.677216,297.791321 421.624847,300.610046 
	C422.818420,304.160248 424.902496,305.808441 429.551270,305.162903 
M215.189575,296.507660 
	C218.678970,295.924072 219.619293,298.362976 220.798477,300.894867 
	C221.539597,302.486206 222.846741,304.670868 224.220276,304.937164 
	C227.342056,305.542389 230.661530,305.127930 234.475342,305.127930 
	C233.826675,303.011261 233.518539,301.756134 233.062958,300.557037 
	C227.456299,285.800659 221.538254,271.153259 216.356583,256.249634 
	C214.444183,250.749115 210.628799,252.642105 207.176895,252.144516 
	C203.554459,251.622345 201.903061,253.253586 200.673721,256.579315 
	C195.315948,271.073608 189.686264,285.467285 184.188629,299.910156 
	C183.622452,301.397583 183.278122,302.969452 182.734756,304.831390 
	C184.644150,304.972534 185.957275,305.018890 187.257278,305.174744 
	C192.119080,305.757629 196.102112,305.222778 197.221756,299.200287 
	C197.427444,298.093872 199.815765,296.760071 201.286194,296.641418 
	C205.585129,296.294495 209.929352,296.508636 215.189575,296.507660 
M259.814758,193.259155 
	C257.868988,198.339554 255.923218,203.419952 253.728363,209.150726 
	C257.619324,209.150726 260.772339,209.308899 263.893677,209.063675 
	C264.964142,208.979568 266.738556,208.008987 266.860138,207.234451 
	C267.938080,200.367493 272.740143,200.313797 277.984955,200.714722 
	C280.137207,200.879257 282.342621,200.972168 284.470978,200.693542 
	C288.740540,200.134613 291.398956,201.495087 292.569305,205.889557 
	C292.906372,207.155228 294.503937,208.819580 295.700806,208.980133 
	C298.912323,209.410965 302.219757,209.127136 305.770264,209.127136 
	C305.527374,207.876450 305.494171,207.209702 305.268555,206.616074 
	C299.419617,191.227448 293.341278,175.921204 287.806030,160.420914 
	C286.020844,155.421799 282.535950,156.578003 279.038574,156.244537 
	C275.326355,155.890594 273.308044,157.150604 272.014130,160.776291 
	C268.213867,171.425217 264.074982,181.953293 259.814758,193.259155 
M382.301575,273.897156 
	C377.471924,273.894592 372.627106,273.653534 367.816986,273.958801 
	C363.314911,274.244629 363.601379,271.470947 363.644135,268.524933 
	C363.687714,265.520905 363.053711,262.377106 367.972931,262.730011 
	C372.777161,263.074646 377.626740,262.765594 382.456177,262.790070 
	C385.506042,262.805542 387.161469,261.530518 387.015686,258.299164 
	C386.935944,256.531769 387.001434,254.757843 387.001434,252.495819 
	C375.404907,252.495819 364.442230,252.418610 353.485535,252.637924 
	C352.579559,252.656052 350.956604,254.674698 350.944061,255.778397 
	C350.780975,270.098694 350.832581,284.421661 350.869934,298.743866 
	C350.880432,302.760773 352.991913,305.029999 356.997223,305.081696 
	C365.655731,305.193512 374.323212,305.303528 382.969421,304.964874 
	C384.357178,304.910553 386.197235,302.755066 386.843048,301.169617 
	C387.514954,299.520020 386.992828,297.384064 386.992828,295.036194 
	C381.628754,295.036194 376.994049,295.036377 372.359344,295.036163 
	C362.806030,295.035706 362.802246,295.035156 363.965210,285.243256 
	C363.998230,284.965363 364.314972,284.721161 364.838684,283.983093 
	C370.470459,283.983093 376.448364,284.196869 382.388519,283.818481 
	C383.715820,283.733917 385.896851,281.613525 385.950562,280.356323 
	C386.046906,278.101501 388.258698,274.242554 382.301575,273.897156 
M246.328110,165.674667 
	C246.648117,162.972321 246.968124,160.269989 247.329132,157.221466 
	C234.829651,157.221466 223.132645,157.221466 211.007217,157.221466 
	C211.007217,173.020462 210.911362,188.462219 211.073196,203.901276 
	C211.114761,207.866257 214.111877,209.114700 217.670349,209.127899 
	C224.828415,209.154449 231.986588,209.163376 239.144714,209.163025 
	C247.578735,209.162613 248.573730,207.809006 246.170212,199.060089 
	C241.664413,199.060089 237.030701,199.060349 232.396988,199.060043 
	C223.034988,199.059464 223.028397,199.058762 223.835602,189.753571 
	C223.874588,189.304214 224.207169,188.880310 224.363083,188.533432 
	C224.804138,188.362000 225.103760,188.146942 225.406281,188.142761 
	C229.898392,188.080826 234.390839,188.024536 238.883316,188.011093 
	C246.834473,187.987289 247.860641,186.613098 245.806656,177.809540 
	C238.738129,177.809540 231.507324,177.809540 224.206482,177.809540 
	C223.979294,176.230698 223.756668,175.268768 223.714706,174.299026 
	C223.390900,166.811813 223.402832,166.885071 230.707687,166.778152 
	C235.674225,166.705429 240.637222,166.390213 246.328110,165.674667 
M129.485687,277.671417 
	C132.133652,264.038696 128.269394,255.296921 117.270050,253.532578 
	C109.235954,252.243851 100.828880,253.280350 92.359550,253.280350 
	C92.359550,270.481506 92.359550,287.631683 92.359550,305.162018 
	C94.913742,305.162018 97.075157,304.978760 99.194344,305.200012 
	C103.652954,305.665527 105.176910,303.631683 104.875969,299.397858 
	C104.654961,296.288574 104.832634,293.150940 104.832634,289.554565 
	C114.820557,289.233643 124.635323,289.185242 129.485687,277.671417 
M184.499344,156.856873 
	C176.411530,156.856873 168.323730,156.856873 160.174133,156.856873 
	C159.981583,158.595535 159.808960,159.565323 159.776886,160.539749 
	C159.571121,166.787445 159.581253,166.790161 165.992508,166.804230 
	C168.888687,166.810593 171.784897,166.805313 175.106171,166.805313 
	C175.106171,181.366608 175.106171,194.948761 175.106171,208.428879 
	C186.837326,210.823257 187.866989,210.046402 187.868103,199.230881 
	C187.868256,197.733658 187.868134,196.236450 187.868134,194.739227 
	C187.868149,185.640289 187.868134,176.541351 187.868134,166.805313 
	C190.786652,166.805313 193.063126,166.808792 195.339584,166.804688 
	C203.532013,166.789948 204.340530,165.701019 202.234863,156.856766 
	C196.741074,156.856766 191.119873,156.856766 184.499344,156.856873 
M139.224106,286.486145 
	C139.263458,290.641937 139.154175,294.805939 139.384125,298.951172 
	C139.612228,303.063446 141.819763,305.255371 146.156433,305.207092 
	C153.305786,305.127502 160.456879,305.212585 167.607239,305.212494 
	C176.122269,305.212341 177.002747,304.101196 175.100937,295.057556 
	C169.297104,295.057556 163.346985,294.845642 157.420837,295.131165 
	C153.387970,295.325470 151.788025,294.160492 151.968933,289.874969 
	C152.284241,282.405304 152.055893,274.912659 152.055603,267.429657 
	C152.055420,262.517273 152.055573,257.604858 152.055573,252.206573 
	C148.964813,252.206573 146.643021,252.430008 144.380569,252.158630 
	C140.086014,251.643494 139.032745,253.534958 139.143082,257.556732 
	C139.398361,266.861908 139.224335,276.178894 139.224106,286.486145 
M355.529602,339.966187 
	C355.796967,335.072906 356.064301,330.179596 356.351105,324.930176 
	C350.419067,325.183319 354.424713,330.617615 351.510437,332.506897 
	C348.382446,331.129852 345.500549,332.052094 344.737823,335.834106 
	C344.352295,337.745880 344.807617,340.977142 346.083344,341.843170 
	C349.065674,343.867706 352.649933,343.838562 355.529602,339.966187 
M405.142944,329.799255 
	C404.865082,331.204102 404.587219,332.608917 404.319244,333.963684 
	C403.378723,333.963684 402.214111,333.797058 401.115723,333.996033 
	C398.237762,334.517395 396.251984,336.379425 397.423126,339.182495 
	C398.104462,340.813171 400.523834,342.488373 402.326202,342.693512 
	C404.825653,342.977997 407.480194,341.899719 409.706451,341.474121 
	C409.358948,339.001801 409.290466,336.529022 408.596710,334.246277 
	C408.098328,332.606506 406.764801,331.220551 405.142944,329.799255 
M329.096191,335.618042 
	C329.436584,337.853424 329.049683,340.695465 330.288879,342.181122 
	C332.118378,344.374451 339.049713,342.758057 339.808563,339.968048 
	C340.437042,337.657227 340.418335,333.772278 339.002930,332.575195 
	C335.287872,329.433105 331.857086,330.653992 329.096191,335.618042 
M391.247375,340.595276 
	C388.022736,340.693146 387.875488,338.794586 388.328003,336.305389 
	C388.851166,333.427765 389.183716,330.515442 389.615784,327.500916 
	C385.040131,327.708801 383.323303,334.963409 385.505310,343.054382 
	C388.685486,342.709869 391.937103,342.357635 395.188721,342.005402 
	C395.152527,341.552643 395.116333,341.099915 395.080139,340.647156 
	C394.068573,340.647156 393.056976,340.647156 391.247375,340.595276 
M360.073059,338.626526 
	C360.495667,340.063019 360.918274,341.499481 361.340881,342.935974 
	C362.197266,342.381836 363.748901,341.878998 363.794220,341.264984 
	C364.038849,337.949890 363.910065,334.607300 363.910065,331.274170 
	C363.284393,331.150452 362.658722,331.026764 362.033081,330.903046 
	C361.387604,333.188599 360.742126,335.474152 360.073059,338.626526 
z"/>
<path fill="#292326" opacity="1.000000" stroke="none" 
	d="
M493.374573,278.405945 
	C493.851715,275.750946 494.709778,272.985840 495.809448,270.601685 
	C495.285828,273.420380 494.520660,275.858093 493.374573,278.405945 
z"/>
<path fill="#292326" opacity="1.000000" stroke="none" 
	d="
M488.257446,286.903687 
	C489.386139,284.005371 490.802612,281.503754 492.388672,279.499634 
	C491.220612,282.431549 489.882904,284.865967 488.257446,286.903687 
z"/>
<path fill="#292326" opacity="1.000000" stroke="none" 
	d="
M498.430267,266.319031 
	C498.057861,265.323059 498.119995,264.126831 498.586395,262.958984 
	C498.948700,264.031128 498.906738,265.074982 498.430267,266.319031 
z"/>
<path fill="#292326" opacity="1.000000" stroke="none" 
	d="
M496.314728,270.939148 
	C495.970154,270.447876 495.964661,269.820312 496.511261,269.321533 
	C496.926849,269.901184 496.790314,270.352051 496.314728,270.939148 
z"/>
<path fill="#292326" opacity="1.000000" stroke="none" 
	d="
M497.294312,269.300171 
	C496.913513,268.837280 496.836060,268.086151 497.410400,267.390320 
	C497.907349,267.967712 497.752502,268.489838 497.294312,269.300171 
z"/>
<path fill="#2E282D" opacity="1.000000" stroke="none" 
	d="
M310.830353,35.608749 
	C294.001495,38.287998 277.486389,40.584980 260.946930,42.690601 
	C259.197937,42.913261 257.305847,42.011909 255.982635,41.298134 
	C272.911896,38.586330 289.330444,36.147877 305.777740,33.921413 
	C307.476685,33.691429 309.346527,34.724392 310.830353,35.608749 
z"/>
<path fill="#2E282D" opacity="1.000000" stroke="none" 
	d="
M158.176102,66.992142 
	C159.362869,68.922417 159.271591,69.269249 156.987503,69.971603 
	C152.131119,71.464958 147.226028,72.799500 142.365234,74.279068 
	C138.143143,75.564240 133.954529,76.959412 129.376694,78.426682 
	C125.498970,75.573547 129.974289,75.483612 130.612503,75.259850 
	C135.258881,73.630829 140.049042,72.416214 144.777069,71.014397 
	C149.143570,69.719757 153.489365,68.355194 158.176102,66.992142 
z"/>
<path fill="#2E282D" opacity="1.000000" stroke="none" 
	d="
M186.706116,58.873032 
	C186.846771,59.638298 186.820923,60.773438 186.480133,60.877533 
	C177.487854,63.624245 168.467926,66.281563 159.427917,68.867363 
	C159.016968,68.984909 158.374420,68.292793 158.154419,67.470398 
	C167.777008,64.229492 177.084915,61.495968 186.706116,58.873032 
z"/>
<path fill="#2E282D" opacity="1.000000" stroke="none" 
	d="
M239.084122,44.880363 
	C239.745773,45.433582 239.970444,45.907314 240.195099,46.381042 
	C234.878204,47.653683 229.564255,48.939575 224.228790,50.128952 
	C224.083069,50.161434 223.705612,49.154434 223.961197,48.299599 
	C229.206512,46.911640 233.926819,45.856255 239.084122,44.880363 
z"/>
<path fill="#2E282D" opacity="1.000000" stroke="none" 
	d="
M200.619171,54.918961 
	C201.312958,55.379501 201.611725,55.781059 201.910492,56.182617 
	C197.280319,57.379547 192.651688,58.582691 188.006790,59.719471 
	C187.930328,59.738186 187.655960,58.948231 187.980072,58.253857 
	C192.398865,56.934704 196.311508,55.897339 200.619171,54.918961 
z"/>
<path fill="#2E282D" opacity="1.000000" stroke="none" 
	d="
M254.084671,41.857250 
	C254.712387,42.435844 254.901749,42.909641 255.091125,43.383438 
	C250.411346,44.211678 245.733093,45.049389 241.042908,45.813740 
	C240.925339,45.832901 240.675842,45.042511 240.986526,44.296806 
	C245.538895,43.226772 249.592606,42.489613 254.084671,41.857250 
z"/>
<path fill="#2E282D" opacity="1.000000" stroke="none" 
	d="
M222.621796,48.927414 
	C223.338211,49.483845 223.662704,49.991447 223.987198,50.499050 
	C219.105682,51.678040 214.227966,52.874119 209.327484,53.968124 
	C209.147705,54.008259 208.744843,53.049011 208.966125,52.263313 
	C213.734177,50.940277 217.982010,49.909431 222.621796,48.927414 
z"/>
<path fill="#2E282D" opacity="1.000000" stroke="none" 
	d="
M121.614273,79.559647 
	C117.772438,81.423256 114.034805,82.830208 109.887146,84.140457 
	C109.534721,83.421234 109.454735,82.309349 109.670341,82.248726 
	C113.665359,81.125374 117.695625,80.127388 121.614273,79.559647 
z"/>
<path fill="#2E282D" opacity="1.000000" stroke="none" 
	d="
M207.700714,52.929451 
	C208.336548,53.221798 208.658615,53.468365 208.980667,53.714935 
	C206.571701,54.885490 204.416458,58.243717 201.966507,54.279552 
	C204.119095,53.608261 205.753021,53.245968 207.700714,52.929451 
z"/>
<path fill="#2E282D" opacity="1.000000" stroke="none" 
	d="
M100.892693,86.610809 
	C99.327309,87.493561 98.136711,87.965523 96.557877,88.493286 
	C96.141693,88.181038 96.113739,87.812981 96.050240,86.892303 
	C97.765625,86.293129 99.516548,86.246574 100.892693,86.610809 
z"/>
<path fill="#2E282D" opacity="1.000000" stroke="none" 
	d="
M125.622910,79.558273 
	C124.673477,80.105042 124.042839,80.141869 122.942764,80.114578 
	C122.955353,79.276779 123.437370,78.503105 123.919395,77.729431 
	C124.593498,78.169060 125.267601,78.608688 125.622910,79.558273 
z"/>
<path fill="#2E282D" opacity="1.000000" stroke="none" 
	d="
M314.290192,34.591953 
	C313.811951,35.318607 313.071136,35.628563 311.909119,35.990097 
	C311.288696,35.561577 311.089478,35.081482 310.890289,34.601387 
	C311.936066,34.459343 312.981812,34.317299 314.290192,34.591953 
z"/>
<path fill="#2E282D" opacity="1.000000" stroke="none" 
	d="
M108.290115,83.511688 
	C107.939461,84.467575 107.359512,84.922501 106.389481,85.464478 
	C105.637505,85.181999 105.275612,84.812492 104.913719,84.442978 
	C105.962761,83.965569 107.011803,83.488152 108.290115,83.511688 
z"/>
<path fill="#2E282D" opacity="1.000000" stroke="none" 
	d="
M256.126709,41.001648 
	C256.175659,41.625687 255.813446,42.298298 254.936005,42.488808 
	C254.852356,41.687881 255.283951,41.369053 256.126709,41.001648 
z"/>
<path fill="#2E282D" opacity="1.000000" stroke="none" 
	d="
M241.128662,44.003502 
	C241.170822,44.636044 240.803864,45.318859 239.927933,45.503132 
	C239.852493,44.687653 240.286026,44.370712 241.128662,44.003502 
z"/>
<path fill="#2E282D" opacity="1.000000" stroke="none" 
	d="
M224.177307,48.004227 
	C224.313492,48.596928 224.097595,49.239300 223.410309,49.450150 
	C223.234360,48.697052 223.529785,48.375473 224.177307,48.004227 
z"/>
<path fill="#2E282D" opacity="1.000000" stroke="none" 
	d="
M209.177521,52.002296 
	C209.322723,52.571899 209.115616,53.191029 208.422943,53.415283 
	C208.233337,52.697544 208.529282,52.374683 209.177521,52.002296 
z"/>
<path fill="#2E282D" opacity="1.000000" stroke="none" 
	d="
M202.176834,53.998787 
	C202.328140,54.566807 202.125427,55.183083 201.431091,55.410110 
	C201.233902,54.696259 201.528351,54.371655 202.176834,53.998787 
z"/>
<path fill="#2E282D" opacity="1.000000" stroke="none" 
	d="
M188.170776,57.999146 
	C188.332321,58.545597 188.134918,59.138493 187.444397,59.376461 
	C187.238144,58.696217 187.524979,58.370903 188.170776,57.999146 
z"/>
<path fill="#000000" opacity="1.000000" stroke="none" 
	d="
M73.752342,102.094421 
	C69.305252,109.974327 64.515396,117.841202 59.688274,125.685150 
	C49.502617,142.236542 42.730206,160.264862 37.127254,178.737015 
	C30.729580,199.829239 28.348782,221.650116 28.435358,243.524704 
	C28.517366,264.245239 30.792547,284.867767 36.419109,305.041443 
	C44.789921,335.054504 58.336613,362.412262 76.876022,387.374542 
	C77.544098,388.274078 78.078323,389.273071 78.755722,390.554626 
	C76.061066,389.255737 72.980217,387.989349 70.558548,385.942871 
	C51.263054,369.636780 35.151997,351.002228 24.674269,327.520020 
	C17.427464,311.278809 12.917526,294.612061 11.000814,277.092377 
	C8.099123,250.569412 10.308658,224.366745 16.362080,198.468887 
	C21.427006,176.800034 27.956436,155.626877 39.784069,136.516068 
	C47.611950,123.867966 57.480110,113.009377 69.440674,104.117691 
	C70.615761,103.244110 72.068718,102.744308 73.752342,102.094421 
z"/>
<path fill="#000000" opacity="1.000000" stroke="none" 
	d="
M75.505402,100.191429 
	C75.401947,100.707016 75.000923,101.286140 74.352722,101.991150 
	C74.472961,101.496330 74.840393,100.875648 75.505402,100.191429 
z"/>
<path fill="#000000" opacity="1.000000" stroke="none" 
	d="
M503.402283,243.688965 
	C502.576660,215.742065 497.949615,188.239609 487.976776,161.805969 
	C480.770447,142.705215 472.173492,124.221649 459.466827,108.029732 
	C450.724426,96.889465 442.247070,85.428444 432.483093,75.229080 
	C417.774597,59.864685 400.192505,47.910862 382.037811,36.350178 
	C388.808868,36.268158 395.849548,35.775101 402.619629,36.904308 
	C414.419128,38.872410 426.316956,41.000122 437.691620,44.588573 
	C454.185059,49.791893 468.268921,59.218594 478.992645,73.109688 
	C481.914856,76.895012 484.620636,80.847397 487.701355,84.934891 
	C498.999451,103.080719 504.999634,122.777847 507.997437,143.432755 
	C509.482635,153.666138 510.256378,164.002808 511.494934,174.655106 
	C511.659607,176.394379 511.681305,177.771271 511.673218,179.560974 
	C510.433746,193.329254 509.480652,206.714844 507.917297,220.028793 
	C506.994629,227.886230 505.105347,235.630173 503.402283,243.688965 
z"/>
<path fill="#FCFCFF" opacity="1.000000" stroke="none" 
	d="
M340.975311,185.845978 
	C343.891785,177.475540 346.915161,169.535309 349.429810,161.437103 
	C350.588226,157.706512 352.472076,156.383148 356.229767,156.851669 
	C358.645813,157.152893 361.129944,156.908188 364.302002,156.908188 
	C364.302002,161.587463 364.302063,165.694702 364.302002,169.801941 
	C364.301819,180.464645 364.310730,191.127380 364.298187,201.790070 
	C364.289429,209.240402 364.232574,209.291687 356.768494,209.156509 
	C355.620789,209.135712 354.475250,208.993881 352.693970,208.860504 
	C352.693970,201.859283 352.693970,194.957901 352.693970,188.056519 
	C352.185822,187.945892 351.677673,187.835266 351.169525,187.724655 
	C349.228027,193.146484 346.996765,198.486832 345.441254,204.017242 
	C344.298737,208.079269 342.310425,209.601654 338.083038,209.282806 
	C335.366486,209.077911 333.943573,208.409210 333.081299,205.702927 
	C331.022003,199.239777 328.626312,192.883789 325.269165,186.571365 
	C325.269165,191.558807 325.274567,196.546249 325.267883,201.533691 
	C325.257477,209.321442 325.253784,209.331390 317.570679,209.154327 
	C316.424377,209.127930 315.281342,208.957657 313.761810,208.819962 
	C313.761810,191.626160 313.761810,174.572220 313.761810,156.942413 
	C317.629364,156.942413 321.276276,156.685150 324.847046,157.093597 
	C325.970367,157.222107 327.355072,158.967316 327.827759,160.261902 
	C331.472321,170.242783 334.922119,180.294815 338.943848,191.786499 
	C339.882263,189.076416 340.378265,187.643997 340.975311,185.845978 
z"/>
<path fill="#FDFDFF" opacity="1.000000" stroke="none" 
	d="
M326.997253,272.954895 
	C326.997253,265.990295 326.997253,259.516754 326.997253,252.656555 
	C331.313049,252.656555 335.206665,252.656555 339.499573,252.656555 
	C339.637543,254.214539 339.871887,255.647461 339.874695,257.080841 
	C339.902008,271.073486 339.775818,285.067749 339.958191,299.058075 
	C340.015198,303.431458 338.780273,305.057892 334.062836,305.351929 
	C327.561462,305.757111 323.795959,304.077515 321.400391,297.535278 
	C318.450073,289.478180 314.157654,281.912537 309.291718,274.153046 
	C309.291718,276.768738 309.292999,279.384430 309.291443,282.000122 
	C309.287842,288.163574 309.191223,294.328827 309.314575,300.489716 
	C309.383026,303.907166 307.985016,305.151703 304.568451,305.220093 
	C296.657532,305.378387 296.657593,305.517029 296.656677,297.561981 
	C296.655121,284.069000 296.764923,270.574615 296.587402,257.083954 
	C296.538971,253.406052 297.733154,252.506516 301.387787,252.100388 
	C308.700470,251.287766 312.891907,253.551102 315.482117,260.797607 
	C318.304138,268.692535 322.552704,276.077576 326.997223,283.599243 
	C326.997223,280.214813 326.997223,276.830353 326.997253,272.954895 
z"/>
<path fill="#FDFDFF" opacity="1.000000" stroke="none" 
	d="
M254.890564,288.998474 
	C254.889450,292.825500 254.695221,296.169556 254.935043,299.482178 
	C255.251450,303.852539 253.456512,305.619507 249.126709,305.197296 
	C247.008575,304.990784 244.853668,305.161560 242.359131,305.161560 
	C242.359131,287.485535 242.359131,270.263519 242.359131,252.327271 
	C246.682999,252.327271 250.982208,252.044144 255.202377,252.497131 
	C256.494507,252.635834 257.968719,254.599548 258.679535,256.058777 
	C263.112366,265.158905 267.352234,274.353088 272.760773,283.405975 
	C272.760773,278.623688 272.760803,273.841431 272.760803,269.059174 
	C272.760803,266.728119 272.760773,264.397095 272.760803,262.066040 
	C272.760895,250.877121 272.760864,250.877121 284.708466,252.855713 
	C284.868439,253.839218 285.199219,254.934509 285.201782,256.030579 
	C285.236145,270.682709 285.143799,285.335724 285.278961,299.986725 
	C285.314606,303.852783 283.932343,305.605713 280.026825,305.170197 
	C279.369171,305.096832 278.672455,305.049042 278.033661,305.181641 
	C271.935394,306.447449 269.285065,303.259888 267.169617,297.952240 
	C263.915741,289.788208 259.826172,281.957306 254.890610,274.084564 
	C254.890610,278.890228 254.890610,283.695862 254.890564,288.998474 
z"/>
<path fill="#FDFDFF" opacity="1.000000" stroke="none" 
	d="
M429.100067,305.162903 
	C424.902496,305.808441 422.818420,304.160248 421.624847,300.610046 
	C420.677216,297.791321 418.942017,295.239960 417.963226,292.428314 
	C416.885742,289.333221 414.486694,288.532623 412.125244,289.543091 
	C410.819122,290.101990 410.364929,292.685028 409.572021,294.376862 
	C409.444061,294.649963 409.554413,295.034302 409.552887,295.367218 
	C409.504333,306.005554 408.548279,306.731415 396.830872,304.398438 
	C396.830872,299.268463 396.830353,293.992462 396.831024,288.716492 
	C396.832367,278.063202 396.907104,267.409149 396.788849,256.757172 
	C396.756165,253.810974 397.643250,252.516785 400.755005,252.626740 
	C406.408112,252.826477 412.078094,252.589340 417.727753,252.836960 
	C424.411530,253.129883 430.290131,255.360229 433.159027,261.946259 
	C436.202881,268.933868 436.178589,276.140167 431.323578,282.251617 
	C428.791443,285.439087 428.758972,287.908722 430.355591,291.163452 
	C432.452454,295.437836 434.352295,299.808899 436.806488,305.162903 
	C433.701508,305.162903 431.626373,305.162903 429.100067,305.162903 
M412.553345,262.826904 
	C411.509552,263.575989 409.630859,264.257721 409.564087,265.085541 
	C409.246735,269.022064 409.244934,273.012726 409.564209,276.949005 
	C409.632874,277.795532 411.431213,279.040649 412.542816,279.172119 
	C417.883606,279.803955 421.573242,276.945496 422.034821,272.168243 
	C422.620728,266.104828 420.261993,263.549194 412.553345,262.826904 
z"/>
<path fill="#FCFCFF" opacity="1.000000" stroke="none" 
	d="
M214.722702,296.505280 
	C209.929352,296.508636 205.585129,296.294495 201.286194,296.641418 
	C199.815765,296.760071 197.427444,298.093872 197.221756,299.200287 
	C196.102112,305.222778 192.119080,305.757629 187.257278,305.174744 
	C185.957275,305.018890 184.644150,304.972534 182.734756,304.831390 
	C183.278122,302.969452 183.622452,301.397583 184.188629,299.910156 
	C189.686264,285.467285 195.315948,271.073608 200.673721,256.579315 
	C201.903061,253.253586 203.554459,251.622345 207.176895,252.144516 
	C210.628799,252.642105 214.444183,250.749115 216.356583,256.249634 
	C221.538254,271.153259 227.456299,285.800659 233.062958,300.557037 
	C233.518539,301.756134 233.826675,303.011261 234.475342,305.127930 
	C230.661530,305.127930 227.342056,305.542389 224.220276,304.937164 
	C222.846741,304.670868 221.539597,302.486206 220.798477,300.894867 
	C219.619293,298.362976 218.678970,295.924072 214.722702,296.505280 
M211.758804,277.811157 
	C210.773285,275.303711 209.787750,272.796295 208.345795,269.127594 
	C206.098373,275.437073 204.310028,280.457703 202.339676,285.989258 
	C206.797592,285.989258 210.344131,285.989258 214.624924,285.989258 
	C213.616821,283.139465 212.807053,280.850311 211.758804,277.811157 
z"/>
<path fill="#FCFCFF" opacity="1.000000" stroke="none" 
	d="
M259.941711,192.893921 
	C264.074982,181.953293 268.213867,171.425217 272.014130,160.776291 
	C273.308044,157.150604 275.326355,155.890594 279.038574,156.244537 
	C282.535950,156.578003 286.020844,155.421799 287.806030,160.420914 
	C293.341278,175.921204 299.419617,191.227448 305.268555,206.616074 
	C305.494171,207.209702 305.527374,207.876450 305.770264,209.127136 
	C302.219757,209.127136 298.912323,209.410965 295.700806,208.980133 
	C294.503937,208.819580 292.906372,207.155228 292.569305,205.889557 
	C291.398956,201.495087 288.740540,200.134613 284.470978,200.693542 
	C282.342621,200.972168 280.137207,200.879257 277.984955,200.714722 
	C272.740143,200.313797 267.938080,200.367493 266.860138,207.234451 
	C266.738556,208.008987 264.964142,208.979568 263.893677,209.063675 
	C260.772339,209.308899 257.619324,209.150726 253.728363,209.150726 
	C255.923218,203.419952 257.868988,198.339554 259.941711,192.893921 
M283.860718,190.779846 
	C284.513519,190.230301 285.821136,189.460983 285.721466,189.163971 
	C284.075989,184.261230 282.253540,179.417908 280.470734,174.561249 
	C280.089630,174.610641 279.708496,174.660034 279.327393,174.709412 
	C277.427826,179.731354 275.528290,184.753296 273.237183,190.810410 
	C277.176880,190.810410 280.094086,190.810410 283.860718,190.779846 
z"/>
<path fill="#FDFDFF" opacity="1.000000" stroke="none" 
	d="
M382.778015,273.903870 
	C388.258698,274.242554 386.046906,278.101501 385.950562,280.356323 
	C385.896851,281.613525 383.715820,283.733917 382.388519,283.818481 
	C376.448364,284.196869 370.470459,283.983093 364.838684,283.983093 
	C364.314972,284.721161 363.998230,284.965363 363.965210,285.243256 
	C362.802246,295.035156 362.806030,295.035706 372.359344,295.036163 
	C376.994049,295.036377 381.628754,295.036194 386.992828,295.036194 
	C386.992828,297.384064 387.514954,299.520020 386.843048,301.169617 
	C386.197235,302.755066 384.357178,304.910553 382.969421,304.964874 
	C374.323212,305.303528 365.655731,305.193512 356.997223,305.081696 
	C352.991913,305.029999 350.880432,302.760773 350.869934,298.743866 
	C350.832581,284.421661 350.780975,270.098694 350.944061,255.778397 
	C350.956604,254.674698 352.579559,252.656052 353.485535,252.637924 
	C364.442230,252.418610 375.404907,252.495819 387.001434,252.495819 
	C387.001434,254.757843 386.935944,256.531769 387.015686,258.299164 
	C387.161469,261.530518 385.506042,262.805542 382.456177,262.790070 
	C377.626740,262.765594 372.777161,263.074646 367.972931,262.730011 
	C363.053711,262.377106 363.687714,265.520905 363.644135,268.524933 
	C363.601379,271.470947 363.314911,274.244629 367.816986,273.958801 
	C372.627106,273.653534 377.471924,273.894592 382.778015,273.903870 
z"/>
<path fill="#FDFDFF" opacity="1.000000" stroke="none" 
	d="
M245.964951,165.929047 
	C240.637222,166.390213 235.674225,166.705429 230.707687,166.778152 
	C223.402832,166.885071 223.390900,166.811813 223.714706,174.299026 
	C223.756668,175.268768 223.979294,176.230698 224.206482,177.809540 
	C231.507324,177.809540 238.738129,177.809540 245.806656,177.809540 
	C247.860641,186.613098 246.834473,187.987289 238.883316,188.011093 
	C234.390839,188.024536 229.898392,188.080826 225.406281,188.142761 
	C225.103760,188.146942 224.804138,188.362000 224.363083,188.533432 
	C224.207169,188.880310 223.874588,189.304214 223.835602,189.753571 
	C223.028397,199.058762 223.034988,199.059464 232.396988,199.060043 
	C237.030701,199.060349 241.664413,199.060089 246.170212,199.060089 
	C248.573730,207.809006 247.578735,209.162613 239.144714,209.163025 
	C231.986588,209.163376 224.828415,209.154449 217.670349,209.127899 
	C214.111877,209.114700 211.114761,207.866257 211.073196,203.901276 
	C210.911362,188.462219 211.007217,173.020462 211.007217,157.221466 
	C223.132645,157.221466 234.829651,157.221466 247.329132,157.221466 
	C246.968124,160.269989 246.648117,162.972321 245.964951,165.929047 
z"/>
<path fill="#FDFDFF" opacity="1.000000" stroke="none" 
	d="
M129.357635,278.043152 
	C124.635323,289.185242 114.820557,289.233643 104.832634,289.554565 
	C104.832634,293.150940 104.654961,296.288574 104.875969,299.397858 
	C105.176910,303.631683 103.652954,305.665527 99.194344,305.200012 
	C97.075157,304.978760 94.913742,305.162018 92.359550,305.162018 
	C92.359550,287.631683 92.359550,270.481506 92.359550,253.280350 
	C100.828880,253.280350 109.235954,252.243851 117.270050,253.532578 
	C128.269394,255.296921 132.133652,264.038696 129.357635,278.043152 
M104.849937,265.754303 
	C104.842888,268.232849 104.825386,270.711426 104.830856,273.189941 
	C104.844360,279.305389 108.127373,281.479156 113.337219,278.073242 
	C115.534103,276.637054 117.595100,273.046417 117.467201,270.550446 
	C117.340416,268.076111 114.846901,264.938812 112.522911,263.601013 
	C110.543350,262.461456 106.876007,261.070099 104.849937,265.754303 
z"/>
<path fill="#FDFCFF" opacity="1.000000" stroke="none" 
	d="
M184.999023,156.856812 
	C191.119873,156.856766 196.741074,156.856766 202.234863,156.856766 
	C204.340530,165.701019 203.532013,166.789948 195.339584,166.804688 
	C193.063126,166.808792 190.786652,166.805313 187.868134,166.805313 
	C187.868134,176.541351 187.868149,185.640289 187.868134,194.739227 
	C187.868134,196.236450 187.868256,197.733658 187.868103,199.230881 
	C187.866989,210.046402 186.837326,210.823257 175.106171,208.428879 
	C175.106171,194.948761 175.106171,181.366608 175.106171,166.805313 
	C171.784897,166.805313 168.888687,166.810593 165.992508,166.804230 
	C159.581253,166.790161 159.571121,166.787445 159.776886,160.539749 
	C159.808960,159.565323 159.981583,158.595535 160.174133,156.856873 
	C168.323730,156.856873 176.411530,156.856873 184.999023,156.856812 
z"/>
<path fill="#FCFBFF" opacity="1.000000" stroke="none" 
	d="
M139.224243,285.988617 
	C139.224335,276.178894 139.398361,266.861908 139.143082,257.556732 
	C139.032745,253.534958 140.086014,251.643494 144.380569,252.158630 
	C146.643021,252.430008 148.964813,252.206573 152.055573,252.206573 
	C152.055573,257.604858 152.055420,262.517273 152.055603,267.429657 
	C152.055893,274.912659 152.284241,282.405304 151.968933,289.874969 
	C151.788025,294.160492 153.387970,295.325470 157.420837,295.131165 
	C163.346985,294.845642 169.297104,295.057556 175.100937,295.057556 
	C177.002747,304.101196 176.122269,305.212341 167.607239,305.212494 
	C160.456879,305.212585 153.305786,305.127502 146.156433,305.207092 
	C141.819763,305.255371 139.612228,303.063446 139.384125,298.951172 
	C139.154175,294.805939 139.263458,290.641937 139.224243,285.988617 
z"/>
<path fill="#F0EFFE" opacity="1.000000" stroke="none" 
	d="
M323.086517,338.561798 
	C323.262543,339.467377 323.898346,340.875244 323.543091,341.200409 
	C320.207123,344.253906 312.837982,343.579834 309.869537,340.113312 
	C307.018707,336.784119 307.276245,331.147064 310.406067,328.369995 
	C315.386322,323.951050 319.927338,323.929413 324.008392,328.206207 
	C327.256744,331.610321 326.407410,334.737885 323.100037,337.992004 
	C322.281006,338.271393 321.922363,338.372803 321.210144,338.586945 
	C318.085785,338.277557 315.315033,337.855408 312.435791,337.086639 
	C311.580414,329.720123 316.741089,329.761475 321.972229,329.625153 
	C318.576599,325.946350 315.700348,327.353516 313.159180,329.337189 
	C310.089539,331.733337 309.954193,334.864105 312.045563,338.462830 
	C315.400299,342.145386 318.789368,341.474304 322.489594,339.138611 
	C322.844818,338.845093 322.965668,338.703430 323.086517,338.561798 
z"/>
<path fill="#F4F2FE" opacity="1.000000" stroke="none" 
	d="
M355.522552,340.407104 
	C352.649933,343.838562 349.065674,343.867706 346.083344,341.843170 
	C344.807617,340.977142 344.352295,337.745880 344.737823,335.834106 
	C345.500549,332.052094 348.382446,331.129852 351.510437,332.506897 
	C354.424713,330.617615 350.419067,325.183319 356.351105,324.930176 
	C356.064301,330.179596 355.796967,335.072906 355.522552,340.407104 
M352.078735,339.277039 
	C351.374786,337.734406 350.670837,336.191803 349.966919,334.649170 
	C349.078461,335.803253 347.296356,337.138306 347.485870,338.074036 
	C347.891724,340.078094 349.102203,342.383850 352.078735,339.277039 
z"/>
<path fill="#F0EEFE" opacity="1.000000" stroke="none" 
	d="
M405.473389,329.760315 
	C406.764801,331.220551 408.098328,332.606506 408.596710,334.246277 
	C409.290466,336.529022 409.358948,339.001801 409.706451,341.474121 
	C407.480194,341.899719 404.825653,342.977997 402.326202,342.693512 
	C400.523834,342.488373 398.104462,340.813171 397.423126,339.182495 
	C396.251984,336.379425 398.237762,334.517395 401.115723,333.996033 
	C402.214111,333.797058 403.378723,333.963684 404.319244,333.963684 
	C404.587219,332.608917 404.865082,331.204102 405.473389,329.760315 
z"/>
<path fill="#F1EFFE" opacity="1.000000" stroke="none" 
	d="
M329.219910,335.251862 
	C331.857086,330.653992 335.287872,329.433105 339.002930,332.575195 
	C340.418335,333.772278 340.437042,337.657227 339.808563,339.968048 
	C339.049713,342.758057 332.118378,344.374451 330.288879,342.181122 
	C329.049683,340.695465 329.436584,337.853424 329.219910,335.251862 
M332.521240,337.132965 
	C332.936676,338.450104 333.352142,339.767273 333.767578,341.084442 
	C334.787048,340.433838 336.538971,339.903687 336.669983,339.106964 
	C336.924591,337.558929 336.269287,335.861237 335.990967,334.225555 
	C334.931152,334.946136 333.871338,335.666718 332.521240,337.132965 
z"/>
<path fill="#F2F1FE" opacity="1.000000" stroke="none" 
	d="
M391.646393,340.621216 
	C393.056976,340.647156 394.068573,340.647156 395.080139,340.647156 
	C395.116333,341.099915 395.152527,341.552643 395.188721,342.005402 
	C391.937103,342.357635 388.685486,342.709869 385.505310,343.054382 
	C383.323303,334.963409 385.040131,327.708801 389.615784,327.500916 
	C389.183716,330.515442 388.851166,333.427765 388.328003,336.305389 
	C387.875488,338.794586 388.022736,340.693146 391.646393,340.621216 
z"/>
<path fill="#F1EFFE" opacity="1.000000" stroke="none" 
	d="
M418.035706,341.832031 
	C416.889404,341.832031 415.743073,341.832031 414.557129,341.832031 
	C414.557129,336.832123 414.416595,331.898224 414.678375,326.985718 
	C414.729401,326.028046 416.343964,325.153717 417.237427,324.240936 
	C417.627838,325.269592 418.242340,326.273651 418.358521,327.332428 
	C418.555084,329.123322 418.436584,330.948792 418.726074,333.121796 
	C419.001587,333.483887 418.954620,333.652069 418.825104,334.048340 
	C418.468842,336.613678 418.242096,338.782745 418.022522,341.171814 
	C418.029663,341.391815 418.035706,341.832031 418.035706,341.832031 
z"/>
<path fill="#EEECFE" opacity="1.000000" stroke="none" 
	d="
M372.988464,331.131226 
	C373.754242,331.389496 374.504272,331.800354 375.288361,331.881226 
	C380.391418,332.407440 382.905365,336.679565 380.729736,341.445160 
	C380.437378,342.085602 379.291443,342.336304 378.540741,342.767487 
	C378.063049,341.664337 377.286499,340.591705 377.169922,339.451630 
	C376.927856,337.084625 378.685577,333.716278 373.505920,333.776459 
	C373.032837,332.695709 373.010651,331.913452 372.988464,331.131226 
z"/>
<path fill="#F5F4FE" opacity="1.000000" stroke="none" 
	d="
M372.687531,331.013947 
	C373.010651,331.913452 373.032837,332.695709 373.091827,333.868439 
	C373.083160,336.571411 373.169281,338.898560 372.914764,341.187775 
	C372.834656,341.908295 371.948059,342.763977 371.220184,343.094421 
	C370.846161,343.264191 369.455933,342.397217 369.467102,342.027252 
	C369.575928,338.426086 369.850433,334.827332 370.229736,331.244019 
	C370.249817,331.054260 371.636261,331.009125 372.687531,331.013947 
z"/>
<path fill="#F4F3FE" opacity="1.000000" stroke="none" 
	d="
M418.278076,342.122284 
	C418.035706,341.832031 418.029663,341.391815 418.396637,341.164307 
	C420.189789,339.501862 421.615997,338.066895 423.042175,336.631958 
	C421.679657,335.638641 420.317139,334.645355 418.954620,333.652069 
	C418.954620,333.652069 419.001587,333.483887 419.020966,333.399292 
	C421.627258,330.553497 423.966492,331.974792 425.609558,334.186188 
	C427.428101,336.633759 425.992249,341.267853 423.243439,342.251068 
	C421.830597,342.756409 420.104797,342.386780 418.278076,342.122284 
z"/>
<path fill="#FBFAFF" opacity="1.000000" stroke="none" 
	d="
M360.084839,338.193115 
	C360.742126,335.474152 361.387604,333.188599 362.033081,330.903046 
	C362.658722,331.026764 363.284393,331.150452 363.910065,331.274170 
	C363.910065,334.607300 364.038849,337.949890 363.794220,341.264984 
	C363.748901,341.878998 362.197266,342.381836 361.340881,342.935974 
	C360.918274,341.499481 360.495667,340.063019 360.084839,338.193115 
z"/>
<path fill="#9A8EF8" opacity="1.000000" stroke="none" 
	d="
M323.113708,338.532715 
	C322.965668,338.703430 322.844818,338.845093 322.317017,338.933716 
	C321.794586,338.745178 321.679138,338.609680 321.563721,338.474182 
	C321.922363,338.372803 322.281006,338.271393 322.897736,338.297668 
	C323.155823,338.425385 323.140900,338.503632 323.113708,338.532715 
z"/>
<path fill="#8B7DF7" opacity="1.000000" stroke="none" 
	d="
M412.983978,262.827637 
	C420.261993,263.549194 422.620728,266.104828 422.034821,272.168243 
	C421.573242,276.945496 417.883606,279.803955 412.542816,279.172119 
	C411.431213,279.040649 409.632874,277.795532 409.564209,276.949005 
	C409.244934,273.012726 409.246735,269.022064 409.564087,265.085541 
	C409.630859,264.257721 411.509552,263.575989 412.983978,262.827637 
z"/>
<path fill="#8A7BF7" opacity="1.000000" stroke="none" 
	d="
M211.878052,278.186157 
	C212.807053,280.850311 213.616821,283.139465 214.624924,285.989258 
	C210.344131,285.989258 206.797592,285.989258 202.339676,285.989258 
	C204.310028,280.457703 206.098373,275.437073 208.345795,269.127594 
	C209.787750,272.796295 210.773285,275.303711 211.878052,278.186157 
z"/>
<path fill="#8E80F8" opacity="1.000000" stroke="none" 
	d="
M283.435974,190.795135 
	C280.094086,190.810410 277.176880,190.810410 273.237183,190.810410 
	C275.528290,184.753296 277.427826,179.731354 279.327393,174.709412 
	C279.708496,174.660034 280.089630,174.610641 280.470734,174.561249 
	C282.253540,179.417908 284.075989,184.261230 285.721466,189.163971 
	C285.821136,189.460983 284.513519,190.230301 283.435974,190.795135 
z"/>
<path fill="#8778F7" opacity="1.000000" stroke="none" 
	d="
M104.878662,265.288055 
	C106.876007,261.070099 110.543350,262.461456 112.522911,263.601013 
	C114.846901,264.938812 117.340416,268.076111 117.467201,270.550446 
	C117.595100,273.046417 115.534103,276.637054 113.337219,278.073242 
	C108.127373,281.479156 104.844360,279.305389 104.830856,273.189941 
	C104.825386,270.711426 104.842888,268.232849 104.878662,265.288055 
z"/>
<path fill="#9A8EF8" opacity="1.000000" stroke="none" 
	d="
M311.874939,338.144989 
	C309.954193,334.864105 310.089539,331.733337 313.159180,329.337189 
	C315.700348,327.353516 318.576599,325.946350 321.972229,329.625153 
	C316.741089,329.761475 311.580414,329.720123 312.262878,337.259308 
	C312.198425,337.778595 311.874939,338.144989 311.874939,338.144989 
z"/>
<path fill="#9A8EF8" opacity="1.000000" stroke="none" 
	d="
M312.371338,337.605927 
	C315.315033,337.855408 318.085785,338.277557 321.210144,338.586945 
	C321.679138,338.609680 321.794586,338.745178 322.082642,339.085571 
	C318.789368,341.474304 315.400299,342.145386 312.045563,338.462830 
	C311.874939,338.144989 312.198425,337.778595 312.371338,337.605927 
z"/>
<path fill="#8E80F8" opacity="1.000000" stroke="none" 
	d="
M351.984070,339.661743 
	C349.102203,342.383850 347.891724,340.078094 347.485870,338.074036 
	C347.296356,337.138306 349.078461,335.803253 349.966919,334.649170 
	C350.670837,336.191803 351.374786,337.734406 351.984070,339.661743 
z"/>
<path fill="#8D7FF8" opacity="1.000000" stroke="none" 
	d="
M332.666382,336.760132 
	C333.871338,335.666718 334.931152,334.946136 335.990967,334.225525 
	C336.269287,335.861237 336.924591,337.558929 336.669983,339.106964 
	C336.538971,339.903687 334.787048,340.433838 333.767578,341.084442 
	C333.352142,339.767273 332.936676,338.450104 332.666382,336.760132 
z"/>
<path fill="#8A7BF7" opacity="1.000000" stroke="none" 
	d="
M418.825104,334.048340 
	C420.317139,334.645355 421.679657,335.638641 423.042175,336.631958 
	C421.615997,338.066895 420.189789,339.501862 418.389465,340.944275 
	C418.242096,338.782745 418.468842,336.613678 418.825104,334.048340 
z"/>
</svg>